#!OML:ASF X:\für Bonn\!DataBase\2005_08_12_Daniel\c3d\Daniel.ASF
:FULLY-SPECIFIED
:DEGREES
153
root -3.25487 13.5116 -1.20527 -5.82708 -87.7433 -7.83651
lowerback 44.156 -3.6651 4.39945
upperback 3.92651 -3.61533 -1.89313
thorax -16.8819 -2.14415 -2.49049
lowerneck 4.31528 1.8123 -2.86898
upperneck -3.79421 2.20228 -0.675822
head -1.94558 1.15434 0.208609
rclavicle 9.93923e-015 8.74653e-015
rhumerus 68.5097 -10.6085 -140.207
rradius 6.7995
rwrist 106.24
rhand -23.5819 10.3254
rfingers 7.12502
rthumb 2.88116 -19.6349
lclavicle 9.93923e-015 8.74653e-015
lhumerus 63.482 -0.0242597 90.1731
lradius 10.7054
lwrist -66.0427
lhand -17.3267 1.48166
lfingers 7.12502
lthumb 8.92009 31.2731
rfemur -41.6138 -24.8635 6.88308
rtibia 98.7649
rfoot 348.55 13.5709
rtoes -12.785
lfemur -583.994 162.87 -187.988
ltibia 96.7151
lfoot -16.2345 -21.9453
ltoes 2.87145
154
root -3.26915 13.685 -1.20392 -5.92441 -87.7063 -7.48042
lowerback 43.6605 -3.64795 4.39204
upperback 3.85686 -3.59856 -1.88647
thorax -16.81 -2.13141 -2.50333
lowerneck 4.0927 1.79834 -2.84065
upperneck -3.54846 2.19548 -0.700859
head -1.82468 1.1478 0.199195
rclavicle -3.18055e-015 3.97569e-016
rhumerus 68.3476 -10.6568 -140.021
rradius 6.88688
rwrist 105.959
rhand -23.5887 10.227
rfingers 7.12502
rthumb 2.87461 -19.7333
lclavicle -3.18055e-015 3.97569e-016
lhumerus 63.4137 -0.147706 89.9724
lradius 10.6546
lwrist -65.8221
lhand -17.3556 1.46482
lfingers 7.12502
lthumb 8.89222 31.2574
rfemur -40.6034 -24.1585 7.21661
rtibia 96.8699
rfoot 348.564 13.0489
rtoes -12.5297
lfemur -582.907 163.532 -188.295
ltibia 94.818
lfoot -16.3233 -21.3666
ltoes 2.95638
155
root -3.28491 13.8549 -1.20262 -5.98678 -87.66 -7.17316
lowerback 43.1784 -3.63712 4.38944
upperback 3.783 -3.58864 -1.88868
thorax -16.7464 -2.12219 -2.52471
lowerneck 3.93034 1.78098 -2.77179
upperneck -3.34575 2.18362 -0.730423
head -1.72842 1.13894 0.180984
rclavicle 1.81888e-014 7.95139e-016
rhumerus 68.1967 -10.7072 -139.856
rradius 6.96951
rwrist 105.704
rhand -23.629 10.1233
rfingers 7.12502
rthumb 2.83565 -19.8376
lclavicle 1.81888e-014 7.95139e-016
lhumerus 63.3242 -0.284711 89.8002
lradius 10.6405
lwrist -65.5778
lhand -17.3005 1.50002
lfingers 7.12502
lthumb 8.94542 31.2904
rfemur -39.5584 -23.5094 7.51772
rtibia 94.9673
rfoot 348.572 12.5521
rtoes -12.2811
lfemur -581.808 164.202 -188.577
ltibia 92.9152
lfoot -16.3983 -20.8367
ltoes 3.08939
156
root -3.30146 14.023 -1.20114 -6.08924 -87.6298 -6.82064
lowerback 42.6907 -3.62269 4.36239
upperback 3.69654 -3.58354 -1.88251
thorax -16.6925 -2.11322 -2.52166
lowerneck 3.78349 1.78408 -2.77435
upperneck -3.11529 2.19702 -0.70637
head -1.62845 1.1422 0.190857
rclavicle -1.02374e-014 1.59028e-014
rhumerus 68.0161 -10.7591 -139.684
rradius 7.04125
rwrist 105.45
rhand -23.6842 10.0428
rfingers 7.12502
rthumb 2.78234 -19.9188
lclavicle -1.02374e-014 1.59028e-014
lhumerus 63.2194 -0.285506 89.8517
lradius 10.605
lwrist -65.5767
lhand -17.1574 1.45986
lfingers 7.12502
lthumb 9.08348 31.2443
rfemur -38.5164 -22.8819 7.82139
rtibia 93.0494
rfoot 348.557 12.0208
rtoes -12.0526
lfemur -580.691 164.84 -188.857
ltibia 90.9951
lfoot -16.5357 -20.2821
ltoes 3.168
157
root -3.31808 14.1885 -1.2002 -6.15826 -87.591 -6.51974
lowerback 42.2274 -3.60671 4.35084
upperback 3.59691 -3.56877 -1.88274
thorax -16.6605 -2.10146 -2.53785
lowerneck 3.69239 1.77476 -2.7095
upperneck -2.91343 2.193 -0.73263
head -1.5461 1.13746 0.173594
rclavicle 1.35174e-014 1.19271e-014
rhumerus 67.8529 -10.867 -139.505
rradius 7.09196
rwrist 105.197
rhand -23.7815 9.94565
rfingers 7.12502
rthumb 2.68841 -20.0171
lclavicle 1.35174e-014 1.19271e-014
lhumerus 63.1061 -0.370005 89.8154
lradius 10.5471
lwrist -65.412
lhand -17.006 1.52686
lfingers 7.12502
lthumb 9.22959 31.3049
rfemur -37.4504 -22.2955 8.10941
rtibia 91.1256
rfoot 348.547 11.5255
rtoes -11.7853
lfemur -579.566 165.467 -189.129
ltibia 89.06
lfoot -16.6839 -19.7269
ltoes 3.16607
